<?xml version="1.0" encoding="utf-8"?>
<!-- Generator: Adobe Illustrator 26.1.0, SVG Export Plug-In . SVG Version: 6.00 Build 0)  -->
<svg version="1.1" id="Capa_1" xmlns="http://www.w3.org/2000/svg" xmlns:xlink="http://www.w3.org/1999/xlink" x="0px" y="0px"
	 viewBox="0 0 141.73 170.08" style="enable-background:new 0 0 141.73 170.08;" xml:space="preserve">
<style type="text/css">
	.st0{fill:#FFFFFF;}
	.st1{fill:#EFD5D8;}
	.st2{fill:#CE7279;}
	.st3{fill:#E1AFB3;}
	.st4{fill:#579C3E;}
	.st5{fill:#DFC863;}
	.st6{fill:none;stroke:#92B647;stroke-width:2.5615;stroke-linecap:round;stroke-linejoin:round;stroke-miterlimit:10;}
	.st7{fill:#92B647;}
	.st8{fill:none;stroke:#579C3E;stroke-width:1.4194;stroke-linecap:round;stroke-linejoin:round;stroke-miterlimit:10;}
</style>
<path class="st0" d="M232.85,216.46"/>
<path class="st0" d="M232.85-283.54"/>
<g>
	<g>
		
			<ellipse transform="matrix(0.7071 -0.7071 0.7071 0.7071 -39.3975 74.4867)" class="st1" cx="70.21" cy="84.8" rx="64.06" ry="64.06"/>
		<g>
			<g>
				<path class="st2" d="M48,60.31c24.02,10.26,41.01,0,41.01,0c5.5-4.88,9.96-10.74,9.95-16.88C98.94,33.53,90.9,25.52,81,25.54
					c-4.68,0.01-8.93,1.81-12.12,4.75c-3.2-2.93-7.46-4.72-12.14-4.71c-9.9,0.02-17.91,8.06-17.89,17.96
					C38.86,49.85,45.63,59.14,48,60.31z"/>
				<g>
					<path class="st3" d="M43.89,44.18c-0.02,0-0.03,0-0.05,0c-0.39,0-0.71-0.33-0.71-0.74C43.12,32.2,54.64,29.99,54.76,29.97
						c0.38-0.07,0.75,0.2,0.82,0.6c0.07,0.4-0.19,0.78-0.57,0.85c-0.03,0-2.69,0.51-5.3,2.26c-3.43,2.3-5.16,5.59-5.16,9.77
						C44.55,43.84,44.26,44.15,43.89,44.18z"/>
				</g>
			</g>
			<path class="st4" d="M89.28,149.34H49.81c-6.25,0-11.35-4.16-11.35-9.25l5.2-65.71c0-5.08,50.03-5.08,50.03,0l6.94,65.71
				C100.63,145.18,95.52,149.34,89.28,149.34z"/>
			<path class="st5" d="M42.76,74.92c-5.99-3-4.3-16.45,5.99-15.55c23.37,4.73,38.47,0,38.47,0c11.35-4.06,14.32,10.89,8.1,14.78
				C86.46,79.68,53.96,80.59,42.76,74.92z"/>
			<line class="st6" x1="88.36" y1="85.8" x2="93.7" y2="141.29"/>
			<g>
				<path class="st7" d="M49.14,110.65c4.7-10.57,16.03-21.74,32.08-22.94c0,0,6.57,22.23-5.56,36.08
					c-4.79,5.46-16.35,13.72-25.91,13.15C45.37,134.8,44.86,120.26,49.14,110.65z"/>
				<path class="st8" d="M79.99,90.34c-2.09,1.79-22.19,29.47-28.91,43.95"/>
				<path class="st8" d="M64.5,99.2c0,0,2.28,8.13,2.85,8.24c0.57,0.11,11.1-3.25,11.1-3.25"/>
				<path class="st8" d="M53.96,110.65c0,0,3.51,11.11,4.08,11.22c0.57,0.11,15.19-4.08,15.19-4.08"/>
			</g>
		</g>
	</g>
</g>
</svg>
