<?xml version="1.0" encoding="utf-8"?>
<!-- Generator: Adobe Illustrator 26.1.0, SVG Export Plug-In . SVG Version: 6.00 Build 0)  -->
<svg version="1.1" id="Capa_1" xmlns="http://www.w3.org/2000/svg" xmlns:xlink="http://www.w3.org/1999/xlink" x="0px" y="0px"
	 viewBox="0 0 141.73 170.08" style="enable-background:new 0 0 141.73 170.08;" xml:space="preserve">
<style type="text/css">
	.st0{fill:#FFFFFF;}
	.st1{fill:#EFD5D8;}
	.st2{fill:#CE7279;}
	.st3{fill:#E1AFB3;}
	.st4{fill:#D68E94;}
	.st5{fill:#CEB449;}
	.st6{fill:#DFC863;}
	.st7{opacity:0.32;clip-path:url(#XMLID_00000051376369145192834720000016158468176370437258_);fill:#D68D97;}
	.st8{fill:#521212;}
	.st9{fill:none;stroke:#C4A833;stroke-width:1.3;stroke-linecap:round;stroke-linejoin:round;stroke-miterlimit:10;}
	.st10{fill:none;stroke:#521212;stroke-width:0.6684;stroke-linecap:round;stroke-linejoin:round;stroke-miterlimit:10;}
</style>
<line class="st0" x1="-312.58" y1="-27.84" x2="437.42" y2="-27.84"/>
<g>
	
		<ellipse transform="matrix(0.1634 -0.9866 0.9866 0.1634 -27.2695 144.6921)" class="st1" cx="71.68" cy="88.43" rx="64.06" ry="64.06"/>
	<g>
		<g>
			<path class="st2" d="M49.24,57.96c-6.13,3.22-10.47,8.5-12.62,14.54c-6.2-1.65-13.01-1.06-19.14,2.16
				C4.53,81.48-0.45,97.52,6.36,110.48c11.79,22.41,59.51,18.93,59.51,18.93S96.1,90.08,85.05,69.09
				C78.24,56.13,62.2,51.15,49.24,57.96z"/>
			<g>
				<path class="st3" d="M12,98.39c-0.02,0-0.05,0-0.07,0c-0.62,0-1.12-0.5-1.12-1.12c0.02-17.18,18.2-20.58,18.38-20.62
					c0.6-0.11,1.19,0.3,1.3,0.91c0.11,0.61-0.3,1.19-0.91,1.3c-0.04,0.01-4.24,0.78-8.37,3.47c-5.41,3.53-8.16,8.55-8.16,14.94
					C13.05,97.87,12.59,98.36,12,98.39z"/>
			</g>
		</g>
		<path class="st4" d="M137.13,57.71c-1.06-0.94-2.38-1.39-3.7-1.37c-0.13-1.31-0.73-2.57-1.79-3.51c-2.24-1.99-5.67-1.79-7.66,0.45
			c-3.44,3.87,0.66,12.76,0.66,12.76s9.71,2.96,12.94-0.67C139.57,63.13,139.37,59.7,137.13,57.71z"/>
		<path class="st5" d="M116.81,120.45c15.68,0.03,13.93,11.12,13.89,13.53c-0.03,2.41-6.9,5.36-8.79-0.73
			C120.02,127.16,109.72,120.44,116.81,120.45z"/>
		<path class="st6" d="M113.86,123.94c15.68,0.03,13.93,11.12,13.89,13.53c-0.03,2.41-6.9,5.36-8.79-0.73
			S106.77,123.93,113.86,123.94z"/>
		<path id="XMLID_14_" class="st5" d="M113.45,71.13c-0.11,2.06-10.69-0.34-10.69-0.34s-17.45-46.46-2.32-55.13
			C124.43,19.72,114.87,70.63,113.45,71.13z"/>
		<path class="st6" d="M91.22,92.9c-42.05,7.75-45.42,47.37-36.52,60.37c9.49,0,64.64-0.02,64.64-0.02s2.5-10.35-7.68-11.29
			c13.26-8.33,14.09-34.61,5.69-39.33C113.85,92.08,101.77,92.31,91.22,92.9z"/>
		<g>
			<defs>
				<path id="XMLID_13_" d="M117.06,67.87c14.41,2.38,32.21,27.4,17.45,45.57c-7.5,7.72-48.69,11.44-53.23-9.55
					C76.75,82.9,93.53,71.45,93.53,71.45S54.42,40.82,71.02,21.26c25.09-0.55,32.81,46.27,32.81,46.27S108.16,66.4,117.06,67.87z"/>
			</defs>
			<use xlink:href="#XMLID_13_"  style="overflow:visible;fill:#DFC863;"/>
			<clipPath id="XMLID_00000028309988403242476440000008332874149615944105_">
				<use xlink:href="#XMLID_13_"  style="overflow:visible;"/>
			</clipPath>
			
				<path id="XMLID_10_" style="opacity:0.32;clip-path:url(#XMLID_00000028309988403242476440000008332874149615944105_);fill:#D68D97;" d="
				M108.72,106.84c-0.11,3.73-4.11,6.59-8.94,6.38c-4.83-0.2-8.66-3.39-8.55-7.12c0.11-3.73,4.11-6.59,8.94-6.38
				C105,99.92,108.83,103.11,108.72,106.84z"/>
			
				<path id="XMLID_15_" style="opacity:0.32;clip-path:url(#XMLID_00000028309988403242476440000008332874149615944105_);fill:#D68D97;" d="
				M145.22,101.9c1,2.88-1,6.15-4.46,7.33c-3.46,1.17-7.08-0.21-8.09-3.09c-1-2.88,1-6.15,4.46-7.33
				C140.6,97.65,144.22,99.03,145.22,101.9z"/>
		</g>
		<path class="st8" d="M103.35,95.44c-0.1,2.25,1.11,4.13,2.69,4.19c1.58,0.07,2.94-1.7,3.04-3.95c0.1-2.25-1.11-4.13-2.69-4.19
			C104.81,91.43,103.45,93.2,103.35,95.44z"/>
		<path class="st8" d="M134.02,94.47c-0.08,1.93,0.76,3.54,1.89,3.59c1.13,0.05,2.11-1.48,2.19-3.41c0.08-1.93-0.76-3.54-1.89-3.59
			C135.09,91.01,134.11,92.54,134.02,94.47z"/>
		<path class="st2" d="M126.72,103.55c1.15-0.05,3.31-2.18,2.92-3.93c-0.41-1.3-2.36-1.45-2.88-0.05c-1.2-2.01-4.18-0.95-4.15,0.93
			C122.66,102.66,125.57,103.6,126.72,103.55z"/>
		<path class="st9" d="M73.42,26.06c0,0,18.82,7.38,25.46,42.62"/>
		<path class="st10" d="M123.46,105.89c0.84,2.38,4.77,2.2,5.46-0.18"/>
		<path class="st9" d="M80.12,121.73c11.84-3.85,27.19,5.29,21.69,20.29l9.87-0.06"/>
		<path class="st5" d="M65.25,153.24c1.1-1.98,1.72-4.25,1.72-6.67c0-7.63-6.18-13.81-13.81-13.81s-13.81,6.18-13.81,13.81
			c0,2.42,0.63,4.7,1.72,6.67H65.25z"/>
		<path class="st9" d="M83.66,109c0,0,5.36,14.99,38.92,9.43"/>
	</g>
</g>
</svg>
