<?xml version="1.0" encoding="utf-8"?>
<!-- Generator: Adobe Illustrator 26.1.0, SVG Export Plug-In . SVG Version: 6.00 Build 0)  -->
<svg version="1.1" id="Capa_1" xmlns="http://www.w3.org/2000/svg" xmlns:xlink="http://www.w3.org/1999/xlink" x="0px" y="0px"
	 viewBox="0 0 141.73 170.08" style="enable-background:new 0 0 141.73 170.08;" xml:space="preserve">
<style type="text/css">
	.st0{fill:#FFFFFF;}
	.st1{fill:#EFD5D8;}
	.st2{fill:#CEB449;}
	.st3{fill:#DFC863;}
	.st4{opacity:0.32;clip-path:url(#XMLID_00000013878233957435286440000009295207416129817999_);fill:#D68D97;}
	.st5{fill:#521212;}
	.st6{fill:#CE7279;}
	.st7{fill:none;stroke:#C4A833;stroke-width:1.3;stroke-linecap:round;stroke-linejoin:round;stroke-miterlimit:10;}
	.st8{fill:none;stroke:#521212;stroke-width:0.6684;stroke-linecap:round;stroke-linejoin:round;stroke-miterlimit:10;}
	.st9{fill:#D68E94;}
	.st10{fill:#92B647;}
</style>
<line class="st0" x1="-312.58" y1="-27.84" x2="437.42" y2="-27.84"/>
<path class="st0" d="M232.85,216.46"/>
<path class="st0" d="M232.85-283.54"/>
<g>
	<g>
		
			<ellipse transform="matrix(0.7071 -0.7071 0.7071 0.7071 -39.4672 74.7648)" class="st1" cx="70.52" cy="85.02" rx="64.06" ry="64.06"/>
		<g>
			<path class="st2" d="M100.8,113.18c1.96-1.13,3.67-2.75,4.92-4.83c3.94-6.53,1.83-15.02-4.7-18.95
				c-6.53-3.94-15.02-1.83-18.95,4.7c-1.25,2.07-1.89,4.35-1.97,6.61L100.8,113.18z"/>
			<ellipse class="st3" cx="68.22" cy="112.65" rx="37.34" ry="27.62"/>
			<g>
				<g>
					<defs>
						<path id="XMLID_17_" d="M85.45,72.16c0,0,33.42-28.82,22.51-50.19c-25.09-0.55-32.81,46.27-32.81,46.27s-4.33-1.13-13.23,0.34
							c-0.35,0.06-0.71,0.14-1.07,0.23c0.25-11.44-4.93-45.65-24.02-46.84c-16.59,13.11,6.04,45.08,13.22,53.07
							c-7.73,7.16-13.36,19.03-10.27,30.18c5.87,20.47,53.37,20.38,57.91-0.61C102.23,83.62,85.45,72.16,85.45,72.16z"/>
					</defs>
					<use xlink:href="#XMLID_17_"  style="overflow:visible;fill:#DFC863;"/>
					<clipPath id="XMLID_00000083067723130056423720000012193599632247883948_">
						<use xlink:href="#XMLID_17_"  style="overflow:visible;"/>
					</clipPath>
					
						<path id="XMLID_20_" style="opacity:0.32;clip-path:url(#XMLID_00000083067723130056423720000012193599632247883948_);fill:#D68D97;" d="
						M81.91,109.77c1.38,3.47,6.12,4.78,10.59,2.94c4.47-1.84,6.98-6.15,5.6-9.62c-1.38-3.47-6.12-4.78-10.59-2.94
						C83.04,101.99,80.53,106.3,81.91,109.77z"/>
					
						<path id="XMLID_19_" style="opacity:0.32;clip-path:url(#XMLID_00000083067723130056423720000012193599632247883948_);fill:#D68D97;" d="
						M39.07,101.15c-1.97,3.17-0.21,7.76,3.93,10.26c4.14,2.5,9.09,1.95,11.06-1.22c1.97-3.17,0.21-7.76-3.93-10.26
						C45.99,97.43,41.04,97.98,39.07,101.15z"/>
				</g>
				<path class="st5" d="M86.57,96.1c0.1,2.25-1.11,4.13-2.69,4.19c-1.58,0.07-2.94-1.7-3.04-3.95c-0.1-2.25,1.11-4.13,2.69-4.19
					C85.11,92.09,86.47,93.85,86.57,96.1z"/>
				<path class="st5" d="M56.39,96.1c0.1,2.25-1.11,4.13-2.69,4.19c-1.58,0.07-2.94-1.7-3.04-3.95s1.11-4.13,2.69-4.19
					S56.3,93.85,56.39,96.1z"/>
				<path class="st6" d="M68.55,104.27c-1.32-0.41-3.81-1.84-3.49-3.93c0.25-1.68,2.94-1.44,3.45-0.04c1.2-2.01,3.61-1.26,3.57,0.61
					C72.09,102.48,70.34,103.72,68.55,104.27z"/>
				<path class="st7" d="M105.56,26.77c0,0-18.82,7.38-25.46,42.62"/>
				<path class="st7" d="M36.41,25.44c0,0,17.83,9.52,20.32,45.3"/>
				<path class="st8" d="M71.24,106.61c-0.84,2.38-4.77,2.2-5.46-0.18"/>
			</g>
			<path class="st9" d="M99.99,117.92c-7.56,0-34.08,5.6-34.79,9.07c-1,4.86,8.14,4.12,8.14,4.12s-12.43,3.88-13.76,1.83
				c-1.15-1.78-17.92-15.61-28.74-15.18c-1.65,0.07-3.63,2.7-1.37,4.34c9.67,9.71,24.06,25.41,32.95,26.26
				c15.02,0,35.58-8.1,35.58-8.1s8.1,6.99,11.21,9.45c6.21,0.09,29.9,0,29.9,0S112.96,117.92,99.99,117.92z"/>
			<path class="st7" d="M38.78,101.69c1.11,5.68,5.52,11,7.78,12.57c4.59,3.2,12.05,6.29,21.95,6.2c6.52-0.06,14.33-0.56,21.29-5.4
				c1.98-1.37,8-5.82,8.81-13.37"/>
			<path class="st3" d="M87.62,117.76c0.56,1.37,1.16,2.82,1.62,4.27c1.89,6.09,8.76,3.14,8.79,0.73c0.01-0.89-0.41-7.98-0.83-10.12
				L87.62,117.76z"/>
			<path class="st3" d="M44.82,117.76c-0.56,1.37-1.16,2.82-1.62,4.27c-1.89,6.09-8.76,3.14-8.79,0.73
				c-0.01-0.89,0.41-7.98,0.83-10.12L44.82,117.76z"/>
			<path class="st10" d="M107.35,72.02c-1.06-0.94-2.38-1.39-3.7-1.37c-0.13-1.31-0.73-2.57-1.79-3.51
				c-2.24-1.99-5.67-1.79-7.66,0.45c-3.44,3.87,0.66,12.76,0.66,12.76s9.71,2.96,12.94-0.67C109.79,77.44,109.59,74.01,107.35,72.02
				z"/>
		</g>
	</g>
</g>
</svg>
