<?xml version="1.0" encoding="utf-8"?>
<!-- Generator: Adobe Illustrator 26.1.0, SVG Export Plug-In . SVG Version: 6.00 Build 0)  -->
<svg version="1.1" id="Capa_1" xmlns="http://www.w3.org/2000/svg" xmlns:xlink="http://www.w3.org/1999/xlink" x="0px" y="0px"
	 viewBox="0 0 141.73 170.08" style="enable-background:new 0 0 141.73 170.08;" xml:space="preserve">
<style type="text/css">
	.st0{fill:#EFD5D8;}
	
		.st1{clip-path:url(#SVGID_00000060738890356227562780000015401855548999517344_);fill:none;stroke:#92B647;stroke-width:1.8831;stroke-linecap:round;stroke-linejoin:round;stroke-miterlimit:10;}
	.st2{fill:#579C3E;}
	.st3{fill:none;stroke:#92B647;stroke-width:1.8831;stroke-linecap:round;stroke-linejoin:round;stroke-miterlimit:10;}
	.st4{fill:none;stroke:#579C3E;stroke-width:2.3258;stroke-miterlimit:10;}
	.st5{fill:#CE7279;}
	.st6{fill:#48833B;}
	.st7{fill:#E1AFB3;}
</style>
<g>
	<g>
		<circle class="st0" cx="70.87" cy="85.04" r="64.06"/>
		<g>
			<g>
				<defs>
					<path id="SVGID_1_" d="M73.66,85.59C63.3,68.5,43.94,52.51,17.93,50.56c0,0-12.24,41.44,10.36,67.24
						c5.46,6.24,15.67,14.43,26.85,19.6C51.01,111.73,71.31,87.62,73.66,85.59z"/>
				</defs>
				<use xlink:href="#SVGID_1_"  style="overflow:visible;fill:#579C3E;"/>
				<clipPath id="SVGID_00000114781882459650489260000007218099657842371459_">
					<use xlink:href="#SVGID_1_"  style="overflow:visible;"/>
				</clipPath>
				
					<path style="clip-path:url(#SVGID_00000114781882459650489260000007218099657842371459_);fill:none;stroke:#92B647;stroke-width:1.8831;stroke-linecap:round;stroke-linejoin:round;stroke-miterlimit:10;" d="
					M20.22,55.47c3.9,3.34,41.36,54.92,53.89,81.91"/>
				
					<path style="clip-path:url(#SVGID_00000114781882459650489260000007218099657842371459_);fill:none;stroke:#92B647;stroke-width:1.8831;stroke-linecap:round;stroke-linejoin:round;stroke-miterlimit:10;" d="
					M49.08,71.98c0,0-4.25,15.15-5.3,15.36c-1.06,0.21-20.68-6.06-20.68-6.06"/>
				
					<path style="clip-path:url(#SVGID_00000114781882459650489260000007218099657842371459_);fill:none;stroke:#92B647;stroke-width:1.8831;stroke-linecap:round;stroke-linejoin:round;stroke-miterlimit:10;" d="
					M61.13,114.23c-1.06,0.21-28.31-7.61-28.31-7.61"/>
			</g>
			<g>
				<path class="st2" d="M94.03,149.1c8.14-4.86,15.19-10.84,19.41-15.66c22.6-25.8,10.36-67.24,10.36-67.24
					c-29.92,2.23-51.03,23.06-59.79,42.75c-5.59,12.58-6.79,29.69-4.18,40.14H94.03z"/>
				<path class="st3" d="M121.51,71.11c-3.54,3.03-34.81,45.92-49.89,73.97"/>
				<path class="st3" d="M92.65,87.62c0,0,4.25,15.15,5.3,15.36c1.06,0.21,20.68-6.06,20.68-6.06"/>
				<path class="st3" d="M73,108.96c0,0,6.55,20.7,7.61,20.92c1.06,0.21,28.31-7.61,28.31-7.61"/>
			</g>
			<g>
				<g>
					<path class="st4" d="M61.27,95.37c0,0,6.72-23.72,17.39-33.67"/>
					<path class="st5" d="M99.4,39.57c-3.16-1.76-6.72-2.16-9.98-1.38c-1.05-3.19-3.25-6.01-6.42-7.77
						c-6.69-3.73-15.14-1.34-18.88,5.36c-6.46,11.57,8.71,31.5,8.71,31.5s25.88,2.01,31.93-8.83C108.49,51.76,106.1,43.3,99.4,39.57
						z"/>
					<path class="st6" d="M73.82,67.87c0,0-21.95-12.43-8.92-18.23C76.59,50.15,73.82,67.87,73.82,67.87z"/>
					<path class="st6" d="M73.27,67.7c0,0,22.32,11.76,20.16-2.34C86.69,55.79,73.27,67.7,73.27,67.7z"/>
				</g>
				<g>
					<path class="st7" d="M66.58,44.87c-0.01,0-0.03,0-0.04,0c-0.36,0-0.65-0.29-0.65-0.65C65.9,34.19,76.5,32.21,76.6,32.19
						c0.35-0.06,0.69,0.17,0.76,0.53c0.06,0.36-0.17,0.69-0.53,0.76c-0.02,0-2.48,0.46-4.88,2.02c-3.16,2.06-4.76,4.99-4.76,8.72
						C67.19,44.56,66.92,44.85,66.58,44.87z"/>
				</g>
			</g>
		</g>
	</g>
</g>
</svg>
